<?xml version="1.0" encoding="utf-8"?>
<!-- Generator: Adobe Illustrator 19.2.1, SVG Export Plug-In . SVG Version: 6.00 Build 0)  -->
<svg version="1.1" id="layer" xmlns="http://www.w3.org/2000/svg" xmlns:xlink="http://www.w3.org/1999/xlink" x="0px" y="0px"
	 viewBox="0 0 652 652" style="enable-background:new 0 0 652 652;" xml:space="preserve">
<path d="M234.9,250.4c-15.6-12.5-35.9-16.3-44.5-17.4c-4.7-7-14.6-20.8-24.1-29.6c-13.1-12.1-30.3-23.2-50.7-20.4
	c-20.4,2.8-33.8,24.4-30.5,55.7c0,0,6.1-17.6,20.7-21.7c13.7-3.8,31.1,5.1,45.7,16.2c-44.2,6.5-68.1,24-73.2,28.1
	c-1.9-11.7-3.1-24.9-2.8-39.3c0,0-9,20-9.4,49.7c-30.2,25.3-40.7,67.1-40.7,67.1c19.2-29,37.7-40.6,42.3-43.3
	c1.5,10.1,4.2,20.8,8.5,31.9C70,332,50.8,348,39.7,381.2c0,0,17.5-27.1,41.9-40.1c2.2,5.4,11.9,27.2,29.2,43.6
	c19.9,18.9,35.3,21.7,52,19.7s36.1-18.9,34.5-55.7c0,0-7.6,25.5-28.5,26.5c-20.6,1-43.7-13.8-64.8-44.1c4.9-1.3,13.9-3.5,20.5-3.8
	c9.3-0.5,25.5,0.2,35.6,4.8c10.1,4.5,18.2,14.6,9.1,23.5c0,0,20.7-3,20.9-21.4c0.2-18.4-29.8-26.2-35.6-27.2
	c-5.6-1-31.2-4.2-59.2,9.4c-1.5-2.9-6.7-13.6-11.4-30c41.3-20.9,89.3-15.4,101.2-13.6c7,10.9,27.1,48.3,14.1,103.8
	c0,0,30.6-37.2,13.1-96.4c30.3,14.6,11.1,33.4,11.1,33.4c15.5-2.5,26.9-11.2,30.4-22.7C257.4,279.1,255.1,266.6,234.9,250.4"/>
<path d="M306,243.4h-32.5v161.1h27.2v-64.3c0,0,64.7,7.9,64.7-48C365.4,292.2,366.6,241.5,306,243.4 M338.1,297.8
	c-3.4,15.3-19.2,15.9-25,16.8c-5.8,0.9-12.8,0.3-12.8,0.3v-46.5C337.3,267.2,341.5,282.5,338.1,297.8"/>
<path d="M446.8,281.9l21.4-12.8c0,0-15.9-30.5-46.7-29c-30.8,1.5-47,22.6-47,42.4s14,33.9,35.1,43c21.1,9.2,36,12.5,35.4,32.3
	c-0.6,19.9-20.2,26.6-32.1,23.5c-11.9-3.1-17.4-11.9-18.3-29.3l-27.5,6.1c0,0,3.4,25.6,21.4,39.4c18,13.7,46.1,12.5,60.7,2.1
	c14.6-10.4,22.9-25.3,22.6-40.9c-0.3-15.6-3.1-28.1-16.2-38.2c-13.1-10.1-21.1-12.5-26.9-14.6c-5.8-2.1-17.7-7.3-22-10.7
	c-4.3-3.4-7.9-13.1-0.9-21.7C412.9,265.2,437.7,258.1,446.8,281.9"/>
<path d="M596.7,404.3h28.6L547.8,238l-81.2,166.3h30.1l17.9-38.2h65.2 M526.8,340.2l21.3-45.5l20.2,45.5H526.8z"/>
<polyline points="49.6,441.3 39.6,441.3 39.6,436 66.1,436 66.1,441.3 56,441.3 56,471.1 49.6,471.1 "/>
<path d="M72.3,434.1h6.5v15.1h0.1c0.8-1.2,1.9-2.2,3.2-2.9c1.2-0.7,2.8-1.1,4.4-1.1c4.3,0,8.8,2.9,8.8,11v15h-6.4v-14.2
	c0-3.7-1.4-6.5-4.9-6.5c-2.5,0-4.3,1.7-5,3.6l-0.3,1.9v15.2h-6.5"/>
<path d="M109.5,460.2c0.2,4.6,3.8,6.6,7.8,6.6c3,0,5.1-0.4,7-1.2l0.9,4.4c-2.2,0.9-5.2,1.6-8.9,1.6c-8.2,0-13.1-5.1-13.1-12.9
	c0-7,4.3-13.6,12.4-13.6c8.3,0,10.9,6.8,10.9,12.3c0,1.2-0.1,2.1-0.2,2.7 M120.6,455.7c0-2.3-1-6.2-5.3-6.2c-4,0-5.6,3.6-5.9,6.2
	H120.6z"/>
<path d="M153,471.1l-8.6-35.1h6.8l3.3,15.9c0.9,4.3,1.7,8.8,2.3,12.3h0.1c0.6-3.7,1.6-7.9,2.6-12.3l3.8-15.9h6.7l3.5,16.1
	c0.9,4.2,1.6,8.1,2.1,11.9h0.1c0.6-3.8,1.5-7.9,2.4-12.1l3.6-15.9h6.5l-9.4,35.1H172l-3.6-16.5c-0.9-4-1.5-7.3-1.9-11.1h-0.1
	c-0.6,3.8-1.3,7.1-2.3,11.1l-4.1,16.5"/>
<path d="M217.7,458.2c0,9.3-6.6,13.5-13,13.5c-7.2,0-12.7-4.9-12.7-13.1c0-8.3,5.5-13.4,13.1-13.4
	C212.7,445.1,217.7,450.4,217.7,458.2 M198.6,458.4c0,4.9,2.4,8.6,6.3,8.6c3.6,0,6.2-3.6,6.2-8.7c0-3.9-1.8-8.5-6.1-8.5
	C200.4,449.8,198.6,454.2,198.6,458.4"/>
<path d="M226.2,453.9c0-3.4,0-5.9-0.2-8.2h5.6l0.2,4.9h0.2c1.2-3.6,4.2-5.4,6.9-5.4l1.5,0.2v6l-1.9-0.2c-3.1,0-5.2,2-5.7,4.9l-0.2,2
	v13.1h-6.4"/>
<rect x="248" y="434.1" width="6.5" height="37"/>
<path d="M288.1,434.1v29.8c0,2.6,0.1,5.4,0.2,7.1h-5.7l-0.3-4h-0.1c-1.5,2.8-4.6,4.6-8.3,4.6c-6,0-10.8-5.2-10.8-13
	c0-8.5,5.3-13.5,11.4-13.5c3.5,0,6,1.5,7.1,3.3h0.1v-14.4 M281.7,456.3l-0.2-1.7c-0.6-2.5-2.6-4.5-5.5-4.5c-4.1,0-6.4,3.7-6.4,8.4
	c0,4.6,2.3,8,6.4,8c2.6,0,4.9-1.8,5.5-4.5l0.2-1.9V456.3z"/>
<path d="M306.1,435c-1.4,4.7-3.6,10-5.6,13.3l-3.9,0.4c1.4-3.8,2.7-9,3.3-13.2"/>
<path d="M309.4,465.2c1.5,0.9,4.2,1.8,6.5,1.8c2.8,0,4.1-1.1,4.1-2.8c0-1.7-1.1-2.6-4.2-3.7c-5-1.7-7-4.4-7-7.4c0-4.5,3.7-8,9.6-8
	c2.8,0,5.3,0.7,6.7,1.5l-1.2,4.5c-1.1-0.6-3.1-1.5-5.4-1.5c-2.3,0-3.5,1.1-3.5,2.7c0,1.6,1.2,2.4,4.4,3.5c4.6,1.7,6.7,4,6.8,7.8
	c0,4.6-3.6,8-10.3,8c-3.1,0-5.8-0.8-7.7-1.8"/>
<path d="M348.6,436.4c2.3-0.4,5.5-0.7,9.8-0.7c4.7,0,8.1,1,10.4,2.9c2.1,1.7,3.4,4.5,3.4,7.8c0,3.3-1,6.1-3,8
	c-2.6,2.6-6.6,3.8-11.1,3.8c-1.2,0-2.3,0-3.1-0.2v13.2h-6.4 M355,452.8c0.8,0.2,1.8,0.3,3.1,0.3c4.8,0,7.7-2.3,7.7-6.5
	c0-3.9-2.7-6-7.1-6c-1.8,0-3,0.2-3.7,0.3V452.8z"/>
<path d="M403.1,458.2c0,9.3-6.6,13.5-13,13.5c-7.2,0-12.7-4.9-12.7-13.1c0-8.3,5.5-13.4,13.1-13.4
	C398.1,445.1,403.1,450.4,403.1,458.2 M384,458.4c0,4.9,2.4,8.6,6.3,8.6c3.6,0,6.2-3.6,6.2-8.7c0-3.9-1.8-8.5-6.1-8.5
	C385.8,449.8,384,454.2,384,458.4"/>
<path d="M411.2,453.9c0-3.4,0-5.9-0.2-8.2h5.6l0.2,4.9h0.2c1.2-3.6,4.2-5.4,6.9-5.4l1.5,0.2v6l-1.9-0.2c-3.1,0-5.2,2-5.7,4.9l-0.2,2
	v13.1h-6.4"/>
<path d="M441.7,439.2v6.5h6.1v4.8h-6.1v11.2c0,3.1,0.8,4.7,3.3,4.7c1.2,0,1.8-0.1,2.5-0.3l0.1,4.9c-0.9,0.4-2.6,0.7-4.6,0.7
	c-2.3,0-4.3-0.8-5.5-2.1c-1.4-1.5-2-3.8-2-7.1v-11.9h-3.6v-4.8h3.6V441"/>
<path d="M494.5,458.2c0,9.3-6.6,13.5-13,13.5c-7.2,0-12.7-4.9-12.7-13.1c0-8.3,5.5-13.4,13.1-13.4
	C489.4,445.1,494.5,450.4,494.5,458.2 M475.3,458.4c0,4.9,2.4,8.6,6.3,8.6c3.6,0,6.2-3.6,6.2-8.7c0-3.9-1.8-8.5-6.1-8.5
	C477.2,449.8,475.3,454.2,475.3,458.4"/>
<path d="M504,471.1v-20.6h-3.4v-4.8h3.4v-1.1c0-3.3,0.9-6.6,3.1-8.6c1.9-1.8,4.4-2.5,6.6-2.5c1.7,0,3.1,0.3,4.1,0.6l-0.5,5
	c-0.7-0.3-1.6-0.5-2.7-0.5c-3.2,0-4.3,2.7-4.3,5.8v1.3h5.6v4.8h-5.5v20.6"/>
<path d="M562.5,470c-1.5,0.8-4.8,1.6-9.1,1.6c-11.1,0-17.9-7-17.9-17.7c0-11.6,8-18.5,18.8-18.5c4.2,0,7.2,0.9,8.5,1.6l-1.4,5.1
	c-1.7-0.7-4-1.4-6.9-1.4c-7.1,0-12.3,4.5-12.3,12.9c0,7.7,4.5,12.6,12.2,12.6c2.6,0,5.3-0.5,7-1.3"/>
<path d="M590.1,465c0,2.3,0.1,4.5,0.4,6.1h-5.8l-0.4-2.8h-0.2c-1.5,2-4.2,3.4-7.5,3.4c-5.1,0-8-3.7-8-7.5c0-6.4,5.7-9.6,15-9.6v-0.4
	c0-1.7-0.7-4.4-5.2-4.4c-2.5,0-5.1,0.8-6.8,1.9l-1.3-4.2c1.9-1.1,5.2-2.2,9.2-2.2c8.1,0,10.5,5.2,10.5,10.7 M583.8,458.7
	c-4.5-0.1-8.8,0.9-8.8,4.7c0,2.5,1.6,3.6,3.6,3.6c2.6,0,4.4-1.7,5-3.5l0.2-1.4V458.7z"/>
<rect x="600" y="434.1" width="6.5" height="37"/>
<rect x="616.4" y="434.1" width="6.5" height="37"/>
</svg>
